<?xml version="1.0" encoding="UTF-8"?>
<!DOCTYPE svg PUBLIC "-//W3C//DTD SVG 1.1//EN" "http://www.w3.org/Graphics/SVG/1.1/DTD/svg11.dtd">
<svg xmlns="http://www.w3.org/2000/svg" version="1.1" width="360px" height="367px" style="shape-rendering:geometricPrecision; text-rendering:geometricPrecision; image-rendering:optimizeQuality; fill-rule:evenodd; clip-rule:evenodd" xmlns:xlink="http://www.w3.org/1999/xlink">

<g><path style="opacity:1" fill="#043270" d="M 175.5,6.5 C 195.383,6.54021 203.216,16.2069 199,35.5C 191.838,47.417 182.004,50.2503 169.5,44C 158.913,34.1349 157.913,23.4682 166.5,12C 169.263,9.6258 172.263,7.79246 175.5,6.5 Z"/></g>
<g><path style="opacity:1" fill="#02326f" d="M 120.5,25.5 C 123.794,25.259 126.794,26.0924 129.5,28C 145.704,46.3688 162.704,63.8688 180.5,80.5C 198.956,63.8777 216.623,46.3777 233.5,28C 240.834,25.0004 245.501,27.3338 247.5,35C 247.066,37.6342 246.233,40.1342 245,42.5C 229.747,68.6707 214.747,95.004 200,121.5C 196.871,126.926 193.371,132.093 189.5,137C 178.075,142.633 169.575,139.8 164,128.5C 147.412,98.326 131.079,67.9926 115,37.5C 113.873,32.0891 115.707,28.0891 120.5,25.5 Z"/></g>
<g><path style="opacity:1" fill="#5eaff9" d="M 68.5,49.5 C 73.8744,48.9369 78.0411,50.9369 81,55.5C 102.392,86.5608 123.392,117.894 144,149.5C 144.774,161.73 138.94,167.897 126.5,168C 90.1572,168.75 53.8239,169.417 17.5,170C 10.0405,162.546 11.0405,156.546 20.5,152C 43.2638,145.853 65.7638,139.02 88,131.5C 88.6667,129.833 88.6667,128.167 88,126.5C 80.0591,104.677 71.7258,83.0099 63,61.5C 62.3333,59.1667 62.3333,56.8333 63,54.5C 64.7297,52.5981 66.563,50.9314 68.5,49.5 Z"/></g>
<g><path style="opacity:1" fill="#2c76c1" d="M 283.5,51.5 C 293.157,49.9917 297.323,53.9917 296,63.5C 288.333,85.1667 280.667,106.833 273,128.5C 271.385,133.09 272.885,135.923 277.5,137C 299.647,142.96 321.647,149.293 343.5,156C 346.318,159.338 347.151,163.171 346,167.5C 344.773,169.726 342.939,171.226 340.5,172C 301.819,171.871 263.152,170.871 224.5,169C 215.32,164.436 213.153,157.603 218,148.5C 239.663,116.012 261.497,83.6789 283.5,51.5 Z"/></g>
<g><path style="opacity:1" fill="#5fb0f9" d="M 34.5,88.5 C 54.7992,86.6297 63.6325,95.6297 61,115.5C 54.614,127.471 45.114,130.971 32.5,126C 23.6374,119.758 20.4708,111.258 23,100.5C 25.6907,95.3111 29.5241,91.3111 34.5,88.5 Z"/></g>
<g><path style="opacity:1" fill="#2c77c1" d="M 309.5,90.5 C 321.82,88.5287 330.32,93.1954 335,104.5C 336.871,116.262 332.371,124.429 321.5,129C 304.031,130.863 295.531,123.03 296,105.5C 298.29,98.3827 302.79,93.3827 309.5,90.5 Z"/></g>
<g><path style="opacity:1" fill="#7daf9c" d="M 17.5,199.5 C 56.8347,199.333 96.1681,199.5 135.5,200C 143.901,204.968 145.735,211.802 141,220.5C 120.292,253.418 99.4582,286.251 78.5,319C 70.9331,322.049 66.2664,319.549 64.5,311.5C 71.8992,288.136 79.3992,264.802 87,241.5C 87.8077,239.421 87.641,237.421 86.5,235.5C 65.4254,228.801 44.0921,222.967 22.5,218C 12.6456,213.936 10.979,207.77 17.5,199.5 Z"/></g>
<g><path style="opacity:1" fill="#a7cef9" d="M 220.5,200.5 C 260.178,200.75 299.844,201.584 339.5,203C 346.157,207.263 347.157,212.597 342.5,219C 318.498,225.167 294.498,231.334 270.5,237.5C 269.359,239.421 269.192,241.421 270,243.5C 277.1,265.139 284.766,286.473 293,307.5C 294.891,316.939 291.058,321.439 281.5,321C 279.667,319.167 277.833,317.333 276,315.5C 255.667,283.833 235.333,252.167 215,220.5C 211.593,212.2 213.426,205.533 220.5,200.5 Z"/></g>
<g><path style="opacity:1" fill="#fa6a57" d="M 175.5,229.5 C 179.966,229.156 183.966,230.323 187.5,233C 207.802,265.095 226.969,297.928 245,331.5C 245.848,337.66 243.181,341.327 237,342.5C 234.181,342.007 231.681,340.84 229.5,339C 213.321,321.488 196.488,304.654 179,288.5C 161.869,305.967 145.036,323.8 128.5,342C 118.899,345.07 114.733,341.57 116,331.5C 132.333,300.167 148.667,268.833 165,237.5C 167.855,233.789 171.355,231.123 175.5,229.5 Z"/></g>
<g><path style="opacity:1" fill="#7eaf9c" d="M 38.5,241.5 C 58.3826,241.54 66.2159,251.207 62,270.5C 52.3764,283.458 41.3764,284.791 29,274.5C 20.545,260.092 23.7116,249.092 38.5,241.5 Z"/></g>
<g><path style="opacity:1" fill="#a7cef8" d="M 306.5,243.5 C 324.489,242.323 332.989,250.656 332,268.5C 327.069,279.597 318.569,284.097 306.5,282C 294.206,275.912 290.373,266.412 295,253.5C 297.818,248.839 301.651,245.505 306.5,243.5 Z"/></g>
<g><path style="opacity:1" fill="#fa6b57" d="M 174.5,318.5 C 185.313,317.489 193.146,321.822 198,331.5C 199.395,353.439 189.561,361.273 168.5,355C 157.3,344.995 156.633,334.329 166.5,323C 169.099,321.205 171.766,319.705 174.5,318.5 Z"/></g>
</svg>
